<?xml version="1.0" encoding="utf-8"?>
<svg viewBox="0 0 1510 287" fill="none" xmlns="http://www.w3.org/2000/svg">
  <defs>
    <clipPath id="clip0_347_652">
      <rect width="1510" height="287" fill="white"/>
    </clipPath>
  </defs>
  <g clip-path="url(#clip0_347_652)" transform="matrix(0.9999999999999999, 0, 0, 0.9999999999999999, -7.105427357601002e-15, -7.105427357601002e-15)">
    <g opacity="0.2">
      <path d="M1106.48 93.5019C1122.99 80.0917 1144.07 71.9725 1166.96 71.8813C1220.42 71.6989 1263.85 114.849 1264.12 168.307C1264.12 187.83 1258.37 206.075 1248.52 221.31L1286.65 255.611C1304.62 231.071 1315.3 200.875 1315.11 168.125C1314.84 86.5687 1248.43 20.7035 1166.87 20.9772C1128.92 21.1596 1094.53 35.6646 1068.53 59.2009L1106.57 93.5019H1106.48Z" style="fill: rgb(0, 133, 207);"/>
      <path d="M1228.18 243.842C1211.66 257.253 1190.59 265.372 1167.69 265.463C1114.23 265.645 1070.81 222.496 1070.54 169.037C1070.54 149.515 1076.28 131.269 1086.14 116.035L1048 81.7336C1030.03 106.273 1019.36 136.469 1019.54 169.219C1019.82 250.776 1086.23 316.641 1167.78 316.367C1205.73 316.185 1240.13 301.68 1266.13 278.143L1227.99 243.842H1228.18Z" style="fill: rgb(0, 133, 207);"/>
      <path d="M1011.79 282.157C988.525 250.319 974.567 211.183 974.567 168.672C974.567 62.2111 1060.87 -24.0888 1167.33 -24.0888C1211.57 -24.0888 1252.17 -9.03653 1284.74 16.0507L1323.05 -21.3521C1280.63 -56.1092 1226.44 -77 1167.33 -77C1031.67 -77 921.656 33.0187 921.656 168.672C921.656 225.597 941.087 277.87 973.473 319.56L1011.79 282.157Z" style="fill: rgb(0, 133, 207);"/>
      <path d="M1322.87 55.1857C1346.13 87.0236 1360.09 126.16 1360.09 168.671C1360.09 275.132 1273.79 361.432 1167.33 361.432C1123.08 361.432 1082.49 346.38 1049.92 321.292L1011.61 358.695C1054.03 393.452 1108.21 414.343 1167.33 414.343C1302.98 414.343 1413 304.324 1413 168.671C1413 111.746 1393.57 59.4733 1361.18 17.783L1322.87 55.1857Z" style="fill: rgb(0, 133, 207);"/>
    </g>
  </g>
</svg>